<svg width="73" height="55" viewBox="0 0 73 55" fill="none" xmlns="http://www.w3.org/2000/svg">
<path d="M27.6 20.825C27.6 22.5953 26.8967 24.2932 25.6449 25.545C24.3931 26.7968 22.6953 27.5 20.925 27.5C19.1547 27.5 17.4569 26.7968 16.2051 25.545C14.9533 24.2932 14.25 22.5953 14.25 20.825C14.25 19.0547 14.9533 17.3569 16.2051 16.1051C17.4569 14.8533 19.1547 14.15 20.925 14.15C22.6953 14.15 24.3931 14.8533 25.6449 16.1051C26.8967 17.3569 27.6 19.0547 27.6 20.825Z" fill="white"/>
<path d="M9.7998 35.0606C9.7998 32.7288 11.6911 30.8375 14.0229 30.8375H27.8223C30.1541 30.8375 32.0454 32.7288 32.0454 35.0606C32.0454 38.8297 29.4777 42.1138 25.8198 43.0305L25.5573 43.0973C22.5135 43.8538 19.3273 43.8538 16.2835 43.0973L16.0165 43.0305C14.2401 42.5851 12.6636 41.5589 11.5372 40.1149C10.4109 38.6709 9.79937 36.8919 9.7998 35.0606Z" fill="white"/>
<path d="M43.1747 18.6001C42.5846 18.6001 42.0187 18.8345 41.6014 19.2518C41.1841 19.6691 40.9497 20.235 40.9497 20.8251C40.9497 21.4152 41.1841 21.9811 41.6014 22.3984C42.0187 22.8157 42.5846 23.0501 43.1747 23.0501H56.5247C57.1148 23.0501 57.6808 22.8157 58.098 22.3984C58.5153 21.9811 58.7497 21.4152 58.7497 20.8251C58.7497 20.235 58.5153 19.6691 58.098 19.2518C57.6808 18.8345 57.1148 18.6001 56.5247 18.6001H43.1747Z" fill="white"/>
<path d="M43.1747 31.9501C42.5846 31.9501 42.0187 32.1845 41.6014 32.6018C41.1841 33.019 40.9497 33.585 40.9497 34.1751C40.9497 34.7652 41.1841 35.3311 41.6014 35.7484C42.0187 36.1657 42.5846 36.4001 43.1747 36.4001H56.5247C57.1148 36.4001 57.6808 36.1657 58.098 35.7484C58.5153 35.3311 58.7497 34.7652 58.7497 34.1751C58.7497 33.585 58.5153 33.019 58.098 32.6018C57.6808 32.1845 57.1148 31.9501 56.5247 31.9501H43.1747Z" fill="white"/>
<path d="M0.899902 8.58755C0.899902 4.28885 4.3887 0.800049 8.6874 0.800049H64.3124C68.6111 0.800049 72.0999 4.28885 72.0999 8.58755V46.4126C72.0999 48.4779 71.2794 50.4587 69.819 51.9191C68.3586 53.3796 66.3778 54.2001 64.3124 54.2001H8.6874C6.62203 54.2001 4.64125 53.3796 3.18081 51.9191C1.72037 50.4587 0.899902 48.4779 0.899902 46.4126V8.58755ZM8.6874 5.25005C7.80224 5.25005 6.95334 5.60168 6.32743 6.22758C5.70153 6.85348 5.3499 7.70239 5.3499 8.58755V46.4126C5.3499 48.2549 6.8451 49.7501 8.6874 49.7501H64.3124C65.1976 49.7501 66.0465 49.3984 66.6724 48.7725C67.2983 48.1466 67.6499 47.2977 67.6499 46.4126V8.58755C67.6499 7.70239 67.2983 6.85348 66.6724 6.22758C66.0465 5.60168 65.1976 5.25005 64.3124 5.25005H8.6874Z" fill="white"/>
</svg>
