<svg width="62" height="62" viewBox="0 0 62 62" fill="none" xmlns="http://www.w3.org/2000/svg">
<g clip-path="url(#clip0_101_304)">
<path d="M61.9999 31.1898C61.9999 13.9616 48.1197 -0.00390625 30.9999 -0.00390625C13.8724 -3.12498e-05 -0.0078125 13.9616 -0.0078125 31.1937C-0.0078125 46.7596 11.3304 59.6633 26.1484 62.0038V40.207H18.2822V31.1937H26.1562V24.3156C26.1562 16.4997 30.7868 12.183 37.8664 12.183C41.2609 12.183 44.8066 12.7913 44.8066 12.7913V20.4638H40.8967C37.0488 20.4638 35.8476 22.8702 35.8476 25.3386V31.1898H44.4423L43.0706 40.2031H35.8437V62C50.6617 59.6595 61.9999 46.7557 61.9999 31.1898Z" fill="white"/>
</g>
<defs>
<clipPath id="clip0_101_304">
<rect width="62" height="62" fill="white"/>
</clipPath>
</defs>
</svg>
