<svg width="35" height="25" viewBox="0 0 35 25" fill="none" xmlns="http://www.w3.org/2000/svg">
<path d="M17.408 0.4104C14.3938 0.4104 11.9504 3.26319 11.9504 6.78229C11.9504 9.2229 13.1257 11.3426 14.8515 12.4128L12.8502 13.3404L7.52439 15.8104C7.00989 16.0677 6.7531 16.5039 6.7531 17.1214V22.9868C6.79542 23.7202 7.23543 24.4037 7.94882 24.4153H26.8961C27.7105 24.3444 28.1225 23.6884 28.1306 22.9868V17.1214C28.1306 16.5039 27.8738 16.0677 27.3593 15.8104L22.2263 13.3404L20.0931 12.3297C21.7482 11.2354 22.8657 9.16153 22.8657 6.78232C22.8657 3.26319 20.4222 0.4104 17.408 0.4104ZM8.60484 2.6511C7.30771 2.70036 6.2797 3.26164 5.49867 4.15598C4.63476 5.23276 4.21359 6.51119 4.20545 7.78297C4.25851 9.66358 5.09997 11.4439 6.59797 12.3751L0.617254 15.1544C0.205625 15.3088 0 15.6689 0 16.2349V20.9423C0.0321417 21.5666 0.3563 22.0913 0.964104 22.1003H4.93905V17.1214C5.00483 15.7902 5.62993 14.7143 6.7531 14.1892L10.727 12.2987C11.0357 12.1186 11.3316 11.8738 11.6146 11.5651C9.97614 9.03708 9.74861 6.00914 10.8046 3.34594C10.1178 2.92562 9.34593 2.6555 8.60484 2.6511ZM26.3553 2.6511C25.507 2.66886 24.7231 2.98124 24.0791 3.42238C25.1063 6.10971 24.823 9.13951 23.3067 11.4875C23.6412 11.8734 23.9893 12.1694 24.3495 12.3752L28.1693 14.1892C29.333 14.8274 29.9331 15.9129 29.9446 17.1214V22.1004H34.0348C34.7075 22.0423 34.9942 21.5057 35 20.9423V16.2349C35 15.7204 34.7944 15.3603 34.3827 15.1544L28.4785 12.3364C30.0097 11.2074 30.7786 9.51538 30.7934 7.78297C30.7527 6.41179 30.3339 5.13861 29.5002 4.15598C28.6291 3.21101 27.5487 2.6611 26.3553 2.6511Z" fill="white"/>
</svg>
